<?xml version="1.0" encoding="utf-8"?>
<!-- Generator: Adobe Illustrator 22.0.1, SVG Export Plug-In . SVG Version: 6.00 Build 0)  -->
<svg version="1.1" xmlns="http://www.w3.org/2000/svg" xmlns:xlink="http://www.w3.org/1999/xlink" x="0px" y="0px"
	 viewBox="0 0 1000 700" style="enable-background:new 0 0 1000 700;" xml:space="preserve">
<style type="text/css">
	.st0{fill:#F7E686;}
	.st1{fill:none;stroke:#F7E686;stroke-width:10;stroke-linecap:round;stroke-linejoin:round;stroke-miterlimit:10;}
</style>
<g id="Layer_1">
	<g>
		<g>
			<path class="st0" d="M371.9,299.6c-4.8,0-8.7,3.9-8.7,8.7c0,4.8,3.9,8.7,8.7,8.7c4.8,0,8.7-3.9,8.7-8.7
				C380.6,303.5,376.7,299.6,371.9,299.6z"/>
			<path class="st0" d="M455.7,299.6c-4.8,0-8.7,3.9-8.7,8.7c0,4.8,3.9,8.7,8.7,8.7c4.8,0,8.7-3.9,8.7-8.7
				C464.4,303.5,460.5,299.6,455.7,299.6z"/>
			<path class="st0" d="M423.6,354.4c-4.2,0-7.7-3.5-7.7-7.7v-10.9l10.1-10h-10.1v0h0h-4.3h0v0h-10.1l10.1,10v10.9
				c0,4.2-3.5,7.7-7.7,7.7c-3.8,0-6.9-2.8-7.6-6.4h-4.4c0.7,6,5.8,10.7,12,10.7c4.1,0,7.7-2,9.9-5.1c2.2,3.1,5.8,5.1,9.9,5.1
				c6.2,0,11.3-4.7,12-10.7h-4.4C430.5,351.6,427.3,354.4,423.6,354.4z"/>
			<path class="st0" d="M521.1,329.8v-4.4h-17.6v-97.1c0-10-5.5-9.5-5.5-9.5c-13.4-0.5-40.1,27.3-43.8,31.4h-76.9
				c-16.7-17.5-35.2-31.4-42.3-31.4c-7.1,0-6.8,6.3-6.8,9.5v97.1h-17.7v4.4h17.7v7.3h-17.7v4.4h17.7v7.3h-17.7v4.4h17.7V364
				c0,7.5,6.1,13.6,13.6,13.6h148.2c7.5,0,13.6-6.1,13.6-13.6v-10.7h17.6v-4.4h-17.6v-7.3h17.6v-4.4h-17.6v-7.3H521.1z M494.1,245.4
				v113.7c0,6-4.9,10.9-10.9,10.9H348.4c-6,0-10.9-4.9-10.9-10.9v-102c0,0,0-12.9,0-18.8c0-5.9,1.1-9,9.7-2.8
				c8.6,6.2,21.4,19.7,24.3,22.5h88.8c13.5-15.1,22.9-21.5,28.1-25.1c5.2-3.5,5.7,3.5,5.7,3.5S494.1,242.6,494.1,245.4z"/>
		</g>
	</g>
	<polygon class="st1" points="244.9,271.2 262.9,388.2 352.9,469.2 478.9,469.2 568.9,388.2 586.9,271.2 532.9,172.2 415.9,127.2 
		307.9,172.2 	"/>
</g>
<g id="Layer_2">
</g>
</svg>
