<?xml version="1.0" encoding="utf-8"?>
<!-- Generator: Adobe Illustrator 22.0.1, SVG Export Plug-In . SVG Version: 6.00 Build 0)  -->
<svg version="1.1" xmlns="http://www.w3.org/2000/svg" xmlns:xlink="http://www.w3.org/1999/xlink" x="0px" y="0px"
	 viewBox="0 0 375 375" style="enable-background:new 0 0 375 375;" xml:space="preserve">
<style type="text/css">
	.st0{fill:#1C75BC;}
	.st1{fill:none;stroke:#1C75BC;stroke-width:10;stroke-linecap:round;stroke-linejoin:round;stroke-miterlimit:10;}
</style>
<g id="Layer_1">
	<g>
		<g>
			<path class="st0" d="M143.5,188.9c-4.8,0-8.7,3.9-8.7,8.7c0,4.8,3.9,8.7,8.7,8.7c4.8,0,8.7-3.9,8.7-8.7
				C152.2,192.8,148.3,188.9,143.5,188.9z"/>
			<path class="st0" d="M227.4,188.9c-4.8,0-8.7,3.9-8.7,8.7c0,4.8,3.9,8.7,8.7,8.7c4.8,0,8.7-3.9,8.7-8.7
				C236.1,192.8,232.2,188.9,227.4,188.9z"/>
			<path class="st0" d="M195.2,243.7c-4.2,0-7.7-3.5-7.7-7.7v-10.9l10.1-10h-10.1v0h0h-4.3h0v0h-10.1l10.1,10V236
				c0,4.2-3.5,7.7-7.7,7.7c-3.8,0-6.9-2.8-7.6-6.4h-4.4c0.7,6,5.8,10.7,12,10.7c4.1,0,7.7-2,9.9-5.1c2.2,3.1,5.8,5.1,9.9,5.1
				c6.2,0,11.3-4.7,12-10.7h-4.4C202.1,240.9,199,243.7,195.2,243.7z"/>
			<path class="st0" d="M292.8,219.1v-4.4h-17.6v-97.1c0-10-5.5-9.5-5.5-9.5c-13.4-0.5-40.1,27.3-43.8,31.4H149
				c-16.7-17.5-35.2-31.4-42.3-31.4c-7.1,0-6.8,6.3-6.8,9.5v97.1H82.2v4.4h17.7v7.3H82.2v4.4h17.7v7.3H82.2v4.4h17.7v10.7
				c0,7.5,6.1,13.6,13.6,13.6h148.2c7.5,0,13.6-6.1,13.6-13.6v-10.7h17.6v-4.4h-17.6v-7.3h17.6v-4.4h-17.6v-7.3H292.8z M265.8,134.7
				v113.7c0,6-4.9,10.9-10.9,10.9H120.1c-6,0-10.9-4.9-10.9-10.9v-102c0,0,0-12.9,0-18.8c0-5.9,1.1-9,9.7-2.8
				c8.6,6.2,21.4,19.7,24.3,22.5H232c13.5-15.1,22.9-21.5,28.1-25.1c5.2-3.5,5.7,3.5,5.7,3.5S265.8,131.9,265.8,134.7z"/>
		</g>
	</g>
	<polygon class="st1" points="16.5,160.5 34.5,277.5 124.5,358.5 250.5,358.5 340.5,277.5 358.5,160.5 304.5,61.5 187.5,16.5 
		79.5,61.5 	"/>
</g>
<g id="Layer_2">
</g>
</svg>
